# xmcd
#
# Track frame offsets:
#	182
#	15287
#	30765
#	47542
#
# Disc length: 893 seconds
#
# Revision: 1
# Processed by: cddbd v1.5.1PL2 Copyright (c) Steve Scherf et al.
# Submitted via: EasyCDDAExtractor 7.0.5.1
#
DISCID=18037b04
DTITLE=Green On Red - Little Things In Life
DYEAR=1991
DGENRE=Alternative
TTITLE0=Little Things In Life
TTITLE1=Cherry Kind
TTITLE2=Waiting For Love
TTITLE3=Sun Goes Down
EXTD=
EXTT0=
EXTT1=
EXTT2=
EXTT3=
PLAYORDER=
